<svg width="40" height="41" viewBox="0 0 40 41" fill="none" xmlns="http://www.w3.org/2000/svg">
<path d="M37.1176 1.03786C32.5041 1.03786 27.887 1.03786 23.2744 1.03786C21.4995 -0.118229 18.9862 -0.121853 17.2294 1.03786C12.4474 1.03786 7.6636 1.03786 2.88159 1.03786C0.168946 1.03786 0.168946 5.24364 2.88159 5.24364C6.97864 5.24364 11.0757 5.24364 15.1728 5.24364C15.1728 9.26186 15.1728 13.2801 15.1728 17.2992C15.1728 17.4007 15.1827 17.4976 15.1872 17.5982C15.1854 17.6462 15.1737 17.687 15.1737 17.7359C15.1737 24.7178 15.161 31.6996 14.8729 38.6769C14.7451 41.781 19.5552 41.7683 19.683 38.6769C19.9095 33.2082 19.9647 27.7367 19.9783 22.2643C20.2066 22.2788 20.435 22.2806 20.6624 22.2661C20.6769 27.7376 20.7321 33.2091 20.9577 38.6769C21.0855 41.7683 25.8947 41.781 25.7678 38.6769C25.4797 31.6996 25.467 24.7178 25.467 17.7359C25.467 17.5221 25.4408 17.3237 25.3964 17.1389C25.3964 13.1741 25.3964 9.20932 25.3964 5.24364C29.3041 5.24364 33.2145 5.24364 37.1194 5.24364C39.8303 5.24364 39.8303 1.03786 37.1176 1.03786Z" fill="white"/>
</svg>
